<mxfile host="app.diagrams.net" agent="Mozilla/5.0 (Windows NT 10.0; Win64; x64) AppleWebKit/537.36 (KHTML, like Gecko) Chrome/131.0.0.0 Safari/537.36" version="24.7.17">
  <diagram id="_KsFbbM1c4Vf_MlxP51w" name="Page-1">
    <mxGraphModel dx="880" dy="434" grid="1" gridSize="10" guides="1" tooltips="1" connect="1" arrows="1" fold="1" page="1" pageScale="1" pageWidth="850" pageHeight="1100" math="0" shadow="0">
      <root>
        <mxCell id="0" />
        <mxCell id="1" parent="0" />
        <mxCell id="yMU-ZAaQUFapcs6r5aY3-1" value="Client&#39;s Side" style="fontStyle=0;verticalAlign=top;align=center;spacingTop=-2;fillColor=none;rounded=0;whiteSpace=wrap;html=1;strokeColor=#00882B;strokeWidth=2;dashed=1;container=1;collapsible=0;expand=0;recursiveResize=0;" parent="1" vertex="1">
          <mxGeometry x="177" y="40" width="180" height="700" as="geometry" />
        </mxCell>
        <mxCell id="yMU-ZAaQUFapcs6r5aY3-2" value="Users" style="outlineConnect=0;fontColor=#232F3E;gradientColor=none;strokeColor=#232F3E;fillColor=#ffffff;dashed=0;verticalLabelPosition=bottom;verticalAlign=top;align=center;html=1;fontSize=12;fontStyle=0;aspect=fixed;shape=mxgraph.aws4.resourceIcon;resIcon=mxgraph.aws4.users;" parent="yMU-ZAaQUFapcs6r5aY3-1" vertex="1">
          <mxGeometry x="47" y="40" width="60" height="60" as="geometry" />
        </mxCell>
        <mxCell id="xHGTEr-8fceokaSjBUOU-3" value="" style="image;sketch=0;aspect=fixed;html=1;points=[];align=center;fontSize=12;image=img/lib/mscae/SAP_HANA_on_Azure.svg;" parent="yMU-ZAaQUFapcs6r5aY3-1" vertex="1">
          <mxGeometry x="23" y="259" width="120" height="60" as="geometry" />
        </mxCell>
        <mxCell id="yMU-ZAaQUFapcs6r5aY3-3" value="Server Side" style="fontStyle=0;verticalAlign=top;align=center;spacingTop=-2;fillColor=none;rounded=0;whiteSpace=wrap;html=1;strokeColor=#258619;strokeWidth=2;dashed=1;container=1;collapsible=0;expand=0;recursiveResize=0;fontColor=#d42121;" parent="1" vertex="1">
          <mxGeometry x="410" y="80" width="820" height="702" as="geometry" />
        </mxCell>
        <mxCell id="yMU-ZAaQUFapcs6r5aY3-9" value="Worker 2" style="outlineConnect=0;dashed=0;verticalLabelPosition=bottom;verticalAlign=top;align=center;html=1;shape=mxgraph.aws3.worker;fillColor=#D9A741;gradientColor=none;labelBackgroundColor=none;fontColor=#000000;" parent="yMU-ZAaQUFapcs6r5aY3-3" vertex="1">
          <mxGeometry x="170" y="403" width="60" height="63" as="geometry" />
        </mxCell>
        <mxCell id="yMU-ZAaQUFapcs6r5aY3-11" value="Worker N" style="outlineConnect=0;dashed=0;verticalLabelPosition=bottom;verticalAlign=top;align=center;html=1;shape=mxgraph.aws3.worker;fillColor=#D9A741;gradientColor=none;" parent="yMU-ZAaQUFapcs6r5aY3-3" vertex="1">
          <mxGeometry x="270" y="402" width="60" height="63" as="geometry" />
        </mxCell>
        <mxCell id="x4FNr3anz5mZ0z94SjzF-3" value="Worker 1" style="outlineConnect=0;dashed=0;verticalLabelPosition=bottom;verticalAlign=top;align=center;html=1;shape=mxgraph.aws3.worker;fillColor=#D9A741;gradientColor=none;labelBackgroundColor=none;fontColor=#000000;" parent="yMU-ZAaQUFapcs6r5aY3-3" vertex="1">
          <mxGeometry x="70" y="403.5" width="60" height="63" as="geometry" />
        </mxCell>
        <mxCell id="x4FNr3anz5mZ0z94SjzF-9" value="RabbitMQ Cluster" style="sketch=0;points=[[0,0,0],[0.25,0,0],[0.5,0,0],[0.75,0,0],[1,0,0],[0,1,0],[0.25,1,0],[0.5,1,0],[0.75,1,0],[1,1,0],[0,0.25,0],[0,0.5,0],[0,0.75,0],[1,0.25,0],[1,0.5,0],[1,0.75,0]];outlineConnect=0;fontColor=#232F3E;gradientColor=#FF4F8B;gradientDirection=north;fillColor=#BC1356;strokeColor=#ffffff;dashed=0;verticalLabelPosition=bottom;verticalAlign=top;align=center;html=1;fontSize=12;fontStyle=0;aspect=fixed;shape=mxgraph.aws4.resourceIcon;resIcon=mxgraph.aws4.sqs;labelBackgroundColor=none;" parent="yMU-ZAaQUFapcs6r5aY3-3" vertex="1">
          <mxGeometry x="230" y="522.5" width="78" height="78" as="geometry" />
        </mxCell>
        <mxCell id="yMU-ZAaQUFapcs6r5aY3-60" style="edgeStyle=orthogonalEdgeStyle;curved=1;rounded=0;orthogonalLoop=1;jettySize=auto;html=1;startArrow=openThin;startFill=0;strokeColor=#82c566;dashed=1;labelBackgroundColor=none;labelBorderColor=default;entryX=0.5;entryY=1;entryDx=0;entryDy=0;entryPerimeter=0;" parent="yMU-ZAaQUFapcs6r5aY3-3" source="x4FNr3anz5mZ0z94SjzF-9" target="yMU-ZAaQUFapcs6r5aY3-9" edge="1">
          <mxGeometry relative="1" as="geometry">
            <mxPoint x="-140" y="673" as="targetPoint" />
            <Array as="points">
              <mxPoint x="269" y="483" />
              <mxPoint x="200" y="483" />
            </Array>
          </mxGeometry>
        </mxCell>
        <mxCell id="x4FNr3anz5mZ0z94SjzF-10" style="edgeStyle=orthogonalEdgeStyle;curved=1;rounded=0;orthogonalLoop=1;jettySize=auto;html=1;startArrow=openThin;startFill=0;strokeColor=#82c566;dashed=1;labelBackgroundColor=none;labelBorderColor=default;entryX=0.5;entryY=1;entryDx=0;entryDy=0;entryPerimeter=0;exitX=0.75;exitY=0;exitDx=0;exitDy=0;exitPerimeter=0;" parent="yMU-ZAaQUFapcs6r5aY3-3" source="x4FNr3anz5mZ0z94SjzF-9" target="yMU-ZAaQUFapcs6r5aY3-11" edge="1">
          <mxGeometry relative="1" as="geometry">
            <mxPoint x="-30" y="873" as="targetPoint" />
            <mxPoint x="19" y="591" as="sourcePoint" />
          </mxGeometry>
        </mxCell>
        <mxCell id="xUTsG6EXteNMuKocuy_s-10" value="ICICI API Gatway" style="image;aspect=fixed;perimeter=ellipsePerimeter;html=1;align=center;shadow=0;dashed=0;spacingTop=3;image=img/lib/active_directory/internet_cloud.svg;" parent="yMU-ZAaQUFapcs6r5aY3-3" vertex="1">
          <mxGeometry x="750" y="150" width="123.81" height="78" as="geometry" />
        </mxCell>
        <mxCell id="Fcgo-apEPi93iQy3yleW-4" style="edgeStyle=orthogonalEdgeStyle;rounded=0;orthogonalLoop=1;jettySize=auto;html=1;startArrow=openThin;startFill=0;exitX=1.002;exitY=0.698;exitDx=0;exitDy=0;exitPerimeter=0;dashed=1;dashPattern=12 12;strokeColor=#2b0d0d;entryX=0.25;entryY=1;entryDx=0;entryDy=0;" parent="yMU-ZAaQUFapcs6r5aY3-3" source="xUTsG6EXteNMuKocuy_s-2" target="xUTsG6EXteNMuKocuy_s-10" edge="1">
          <mxGeometry relative="1" as="geometry">
            <mxPoint x="740" y="195" as="targetPoint" />
            <Array as="points">
              <mxPoint x="785" y="553" />
            </Array>
            <mxPoint x="211" y="465" as="sourcePoint" />
          </mxGeometry>
        </mxCell>
        <mxCell id="xHGTEr-8fceokaSjBUOU-6" style="edgeStyle=orthogonalEdgeStyle;curved=1;rounded=0;orthogonalLoop=1;jettySize=auto;html=1;startArrow=openThin;startFill=0;strokeColor=#82c566;dashed=1;labelBackgroundColor=none;labelBorderColor=default;entryX=0.5;entryY=1;entryDx=0;entryDy=0;entryPerimeter=0;" parent="yMU-ZAaQUFapcs6r5aY3-3" source="x4FNr3anz5mZ0z94SjzF-9" target="x4FNr3anz5mZ0z94SjzF-3" edge="1">
          <mxGeometry relative="1" as="geometry">
            <mxPoint x="121" y="540" as="targetPoint" />
            <mxPoint x="190" y="503" as="sourcePoint" />
            <Array as="points">
              <mxPoint x="240" y="483" />
              <mxPoint x="100" y="483" />
            </Array>
          </mxGeometry>
        </mxCell>
        <mxCell id="xUTsG6EXteNMuKocuy_s-3" value="" style="outlineConnect=0;dashed=0;verticalLabelPosition=bottom;verticalAlign=top;align=center;html=1;shape=mxgraph.aws3.redis;fillColor=#2E73B8;gradientColor=none;" parent="yMU-ZAaQUFapcs6r5aY3-3" vertex="1">
          <mxGeometry x="120" y="530" width="60" height="63" as="geometry" />
        </mxCell>
        <mxCell id="xHGTEr-8fceokaSjBUOU-23" value="PGBouncer" style="sketch=0;outlineConnect=0;fontColor=#232F3E;gradientColor=none;fillColor=#2E27AD;strokeColor=none;dashed=0;verticalLabelPosition=bottom;verticalAlign=top;align=center;html=1;fontSize=12;fontStyle=0;aspect=fixed;pointerEvents=1;shape=mxgraph.aws4.rds_trusted_language_extensions_for_postgresql;" parent="yMU-ZAaQUFapcs6r5aY3-3" vertex="1">
          <mxGeometry x="460" y="289" width="59" height="78" as="geometry" />
        </mxCell>
        <mxCell id="xHGTEr-8fceokaSjBUOU-24" value="CustomPort" style="endArrow=classic;startArrow=classic;html=1;rounded=0;exitX=1.006;exitY=0.18;exitDx=0;exitDy=0;exitPerimeter=0;dashed=1;dashPattern=12 12;labelPosition=center;verticalLabelPosition=top;align=center;verticalAlign=bottom;" parent="yMU-ZAaQUFapcs6r5aY3-3" source="xUTsG6EXteNMuKocuy_s-2" target="xHGTEr-8fceokaSjBUOU-23" edge="1">
          <mxGeometry width="50" height="50" relative="1" as="geometry">
            <mxPoint x="218" y="359" as="sourcePoint" />
            <mxPoint x="271" y="359" as="targetPoint" />
            <Array as="points" />
          </mxGeometry>
        </mxCell>
        <mxCell id="xHGTEr-8fceokaSjBUOU-26" value="Port 5432/Custom Port" style="endArrow=classic;startArrow=classic;html=1;rounded=0;labelBackgroundColor=none;labelPosition=center;verticalLabelPosition=top;align=center;verticalAlign=bottom;" parent="yMU-ZAaQUFapcs6r5aY3-3" target="xHGTEr-8fceokaSjBUOU-21" edge="1" source="xHGTEr-8fceokaSjBUOU-23">
          <mxGeometry width="50" height="50" relative="1" as="geometry">
            <mxPoint x="369" y="363.5" as="sourcePoint" />
            <mxPoint x="422" y="363.5" as="targetPoint" />
          </mxGeometry>
        </mxCell>
        <mxCell id="xHGTEr-8fceokaSjBUOU-35" value="Ports Group A" style="text;strokeColor=none;align=center;fillColor=none;html=1;verticalAlign=middle;whiteSpace=wrap;rounded=0;" parent="yMU-ZAaQUFapcs6r5aY3-3" vertex="1">
          <mxGeometry x="300" y="360" width="90" height="30" as="geometry" />
        </mxCell>
        <mxCell id="xHGTEr-8fceokaSjBUOU-20" value="Web Server (Windows Server 2019)" style="rounded=0;whiteSpace=wrap;html=1;labelBackgroundColor=none;fillStyle=dots;fillColor=none;dashed=1;align=left;verticalAlign=top;fontColor=#000000;strokeColor=#161cc0;" parent="yMU-ZAaQUFapcs6r5aY3-3" vertex="1">
          <mxGeometry x="90" y="31" width="290" height="248" as="geometry" />
        </mxCell>
        <mxCell id="xHGTEr-8fceokaSjBUOU-25" value="CustomPort" style="endArrow=classic;startArrow=classic;html=1;rounded=0;exitX=0.831;exitY=1;exitDx=0;exitDy=0;exitPerimeter=0;dashed=1;dashPattern=12 12;labelPosition=center;verticalLabelPosition=bottom;align=center;verticalAlign=top;" parent="yMU-ZAaQUFapcs6r5aY3-3" source="xHGTEr-8fceokaSjBUOU-20" target="xHGTEr-8fceokaSjBUOU-23" edge="1">
          <mxGeometry width="50" height="50" relative="1" as="geometry">
            <mxPoint x="191" y="299" as="sourcePoint" />
            <mxPoint x="320" y="374" as="targetPoint" />
            <Array as="points">
              <mxPoint x="380" y="300" />
            </Array>
          </mxGeometry>
        </mxCell>
        <mxCell id="xHGTEr-8fceokaSjBUOU-28" style="edgeStyle=orthogonalEdgeStyle;rounded=0;orthogonalLoop=1;jettySize=auto;html=1;startArrow=openThin;startFill=0;dashed=1;dashPattern=12 12;strokeColor=#2b0d0d;entryX=0.25;entryY=0;entryDx=0;entryDy=0;exitX=1.01;exitY=0.177;exitDx=0;exitDy=0;exitPerimeter=0;" parent="yMU-ZAaQUFapcs6r5aY3-3" source="xHGTEr-8fceokaSjBUOU-20" target="xUTsG6EXteNMuKocuy_s-10" edge="1">
          <mxGeometry relative="1" as="geometry">
            <mxPoint x="752" y="453" as="targetPoint" />
            <Array as="points">
              <mxPoint x="785" y="75" />
            </Array>
            <mxPoint x="642" y="503" as="sourcePoint" />
          </mxGeometry>
        </mxCell>
        <mxCell id="xHGTEr-8fceokaSjBUOU-9" value="Vue Js Portal" style="pointerEvents=1;shadow=0;dashed=0;html=1;strokeColor=none;labelPosition=center;verticalLabelPosition=bottom;verticalAlign=top;align=center;fillColor=#505050;shape=mxgraph.mscae.intune.company_portal" parent="yMU-ZAaQUFapcs6r5aY3-3" vertex="1">
          <mxGeometry x="120" y="62" width="90" height="60" as="geometry" />
        </mxCell>
        <mxCell id="xHGTEr-8fceokaSjBUOU-10" value="Portal Api" style="outlineConnect=0;fontColor=#232F3E;gradientColor=none;strokeColor=#ffffff;fillColor=#232F3E;dashed=0;verticalLabelPosition=middle;verticalAlign=bottom;align=center;html=1;whiteSpace=wrap;fontSize=10;fontStyle=1;spacing=3;shape=mxgraph.aws4.productIcon;prIcon=mxgraph.aws4.api_gateway;" parent="yMU-ZAaQUFapcs6r5aY3-3" vertex="1">
          <mxGeometry x="230" y="62" width="80" height="110" as="geometry" />
        </mxCell>
        <mxCell id="_dJijCis9dZ2Z3_0VdmX-5" value="" style="endArrow=classic;startArrow=classic;html=1;rounded=0;exitX=0.397;exitY=1.004;exitDx=0;exitDy=0;exitPerimeter=0;dashed=1;dashPattern=12 12;labelPosition=center;verticalLabelPosition=bottom;align=center;verticalAlign=top;" edge="1" parent="yMU-ZAaQUFapcs6r5aY3-3" source="xHGTEr-8fceokaSjBUOU-20" target="xUTsG6EXteNMuKocuy_s-2">
          <mxGeometry width="50" height="50" relative="1" as="geometry">
            <mxPoint x="534" y="71" as="sourcePoint" />
            <mxPoint x="870" y="491" as="targetPoint" />
            <Array as="points" />
          </mxGeometry>
        </mxCell>
        <mxCell id="xUTsG6EXteNMuKocuy_s-2" value="App Server (Windows Server 2019)" style="rounded=0;whiteSpace=wrap;html=1;labelBackgroundColor=none;fillStyle=dots;fillColor=none;dashed=1;align=left;verticalAlign=top;fontColor=#000000;strokeColor=#161cc0;" parent="yMU-ZAaQUFapcs6r5aY3-3" vertex="1">
          <mxGeometry x="50" y="382" width="330" height="245" as="geometry" />
        </mxCell>
        <mxCell id="xHGTEr-8fceokaSjBUOU-21" value="Primary DB" style="image;sketch=0;aspect=fixed;html=1;points=[];align=center;fontSize=12;image=img/lib/mscae/Azure_Database_for_PostgreSQL_servers.svg;" parent="yMU-ZAaQUFapcs6r5aY3-3" vertex="1">
          <mxGeometry x="600" y="279" width="55.48" height="73" as="geometry" />
        </mxCell>
        <mxCell id="xHGTEr-8fceokaSjBUOU-22" value="Secondary DB" style="image;sketch=0;aspect=fixed;html=1;points=[];align=center;fontSize=12;image=img/lib/mscae/Azure_Database_for_PostgreSQL_servers.svg;" parent="yMU-ZAaQUFapcs6r5aY3-3" vertex="1">
          <mxGeometry x="600" y="590" width="55.48" height="73" as="geometry" />
        </mxCell>
        <mxCell id="xHGTEr-8fceokaSjBUOU-27" value="Port 5432/CustomPort" style="endArrow=classic;startArrow=classic;html=1;rounded=0;labelPosition=center;verticalLabelPosition=top;align=center;verticalAlign=bottom;" parent="yMU-ZAaQUFapcs6r5aY3-3" source="xHGTEr-8fceokaSjBUOU-21" target="xHGTEr-8fceokaSjBUOU-22" edge="1">
          <mxGeometry width="50" height="50" relative="1" as="geometry">
            <mxPoint x="379" y="373.5" as="sourcePoint" />
            <mxPoint x="744" y="336" as="targetPoint" />
          </mxGeometry>
        </mxCell>
        <mxCell id="_dJijCis9dZ2Z3_0VdmX-6" value="" style="edgeStyle=orthogonalEdgeStyle;curved=1;rounded=0;orthogonalLoop=1;jettySize=auto;html=1;startArrow=openThin;startFill=0;dashed=1;fillColor=#f8cecc;strokeColor=#5a3489;" edge="1" parent="yMU-ZAaQUFapcs6r5aY3-3" source="xHGTEr-8fceokaSjBUOU-10" target="_dJijCis9dZ2Z3_0VdmX-4">
          <mxGeometry relative="1" as="geometry">
            <Array as="points" />
            <mxPoint x="680" y="252" as="sourcePoint" />
            <mxPoint x="698" y="713" as="targetPoint" />
          </mxGeometry>
        </mxCell>
        <mxCell id="_dJijCis9dZ2Z3_0VdmX-4" value="DB Server (Linux Server)" style="rounded=0;whiteSpace=wrap;html=1;labelBackgroundColor=none;fillStyle=dots;fillColor=none;dashed=1;align=left;verticalAlign=top;fontColor=#000000;strokeColor=#161cc0;" vertex="1" parent="yMU-ZAaQUFapcs6r5aY3-3">
          <mxGeometry x="430" y="190" width="290" height="248" as="geometry" />
        </mxCell>
        <mxCell id="x4FNr3anz5mZ0z94SjzF-12" style="edgeStyle=orthogonalEdgeStyle;rounded=0;orthogonalLoop=1;jettySize=auto;html=1;startArrow=openThin;startFill=0;" parent="1" source="yMU-ZAaQUFapcs6r5aY3-2" target="xHGTEr-8fceokaSjBUOU-2" edge="1">
          <mxGeometry relative="1" as="geometry">
            <mxPoint x="217" y="100" as="sourcePoint" />
            <mxPoint x="427" y="87" as="targetPoint" />
            <Array as="points">
              <mxPoint x="358" y="108" />
              <mxPoint x="358" y="106" />
            </Array>
          </mxGeometry>
        </mxCell>
        <mxCell id="Fcgo-apEPi93iQy3yleW-2" value="GSTIN" style="shape=image;verticalLabelPosition=bottom;labelBackgroundColor=#ffffff;verticalAlign=top;aspect=fixed;imageAspect=0;image=data:image/png,iVBORw0KGgoAAAANSUhEUgAAAHAAAABwCAYAAADG4PRLAAAFOklEQVR4Ae2dLVP0MBSF+ZsYDAqDwaAwGAwGhcFgMBgMBoPCYDAYPAaDwmDyznmHLJed9Gzb3DZJ92Rmp9km22TPc08/st10Jyg1rcBO071X54MANh4EAiiAjSvQePflQAFsXIHGuy8HCmDjCjTefTlQABtXoPHuy4EC2LgCjXdfDhTAOhV4f38P5+fn4fHxsc4OOvVqcQ78/v4ONzc3YXd3d/U6OTkJALrEtCiALy8v4eDgYAXOQkQeYAF4SWkRAD8+PsLZ2VknOAsSgAF6KalpgHDT3d1d2Nvb6wXPggRwgG89NQvw9fU1HB0dDQZnIQI8AqDl3WpzAD8/P8PFxUUWOAsReQQCAqLF1BTA+/v7sL+/7wrPwry8vAwIkJZSEwDf3t4CLgWs2FPlESAIlFZS1QC/vr7C1dXVLODWAwIBg8CpPVULECMo7JpuXfD4Hp/BGebt7e3/Ze4u9/r6OiCQak3VAcSIyenp6SjXAdz6MQzv+14jxiBYXyIonp6eqmRYDcA4BDbmmg6CY5fXdTmA9R7HUARCbUNyVQDcNAS27ojU+03HK5SnPjd0HQKspiG5ogA9dm8AAFG73Bf3eygf6+4U5MPDwyqG5IoAhJhjh8BSYuJEpU/KPaFJtY2frNaPu3364lVndoAeQ2ApITcdm1Ce+pzHOgQGArJEmg0gohQjHR6CpbaBbbM0ZduxPxiS23QsZn0cUzYLwKmHwKKAuPZLJayPdeZYIljmunacFCCi0eP0fYjouIbE7gy7aiznbj/2FbvVOW7nmAQgog8jGPHLbPMSAbTp+Jzaa/Rd5w5w7BDY0iHj2nGK3Wo2wDlODpYKt6/LWD0BNHevzR0oDEzfMgEUwOmu7eZ2xNzt9XUZqycHyoFy4FjnMmf1LZMDt92BNlIw+jE2Grfhc11DfVbDoflsB9oGBfD3DzWpgKweIEYaANG+2P0oGJ2wdW3++Pi4080YHLd1bZ7dCIX7Wmxdm08JHtfZejaP7cU660v0w9ZFfopb+V0daN0Y82ykhg32shubIEZXwi/l62LG90zAWCe17GoL20vVxzr0Y44kgD8qd4HA+q4kgOTfs3JgV9j8XS8H/ughB/4NjNU7HQNXUkySkQN/ZJUDO+JLDuwQxmm1HCgH8lCSA7k+uaVyoBzIY0gO5PrklsqBciCPITmQ65NbKgfKgTyG5ECuT26pHCgH8hiSA7k+uaVyoBzIY0gO5PrklsqBciCPITmQ65NbKgfKgTyG5ECuT26pHCgH8hiSA7k+uaVyoBzIY0gO5PrklsqBciCPITmQ65NbKgfKgTyG5ECuT26pHCgH8hiSA7k+uaVyoBzIY0gO5PrklsqBciCPITmQ65NbKgfKgb8xhD/9Yy4U+2LThWDKflvX5tlsE3C1rWvz7NECmEXY1rV59gdPW8/m2azE6IetizybXeNXxWE5Vweig0yIbS8DRO8kgDPOlVY1QEzszXaX2+4+fP8pZrJ3ceDDw4Prc4mWDhvHcK8J0LMAohNsLrSlg8j5fphLzeMpL6MBejwyLkeApXw291F2gwHiyWNodCkC1vA9ch4OMgggHmClExU+J+jYgMCzDZ+fnwdfZQwCqOu8aeBF6Di5GZoEcMbrwAiqaymAFcHogsTWC6AA8j1wak5sHBf18tFgzGPqBh0DOV6VllBAAEuo7timADqKWWJTAlhCdcc2BdBRzBKbEsASqju2KYCOYpbYlACWUN2xTQF0FLPEpgSwhOqObQqgo5glNiWAJVR3bFMAHcUssSkBLKG6Y5v/ANeJHdCbwqsjAAAAAElFTkSuQmCC;" parent="1" vertex="1">
          <mxGeometry x="1550" y="162" width="130" height="130" as="geometry" />
        </mxCell>
        <mxCell id="Fcgo-apEPi93iQy3yleW-3" value="" style="endArrow=classic;startArrow=classic;html=1;rounded=0;entryX=0.01;entryY=0.438;entryDx=0;entryDy=0;exitX=1;exitY=0.5;exitDx=0;exitDy=0;entryPerimeter=0;" parent="1" source="xUTsG6EXteNMuKocuy_s-10" target="_dJijCis9dZ2Z3_0VdmX-1" edge="1">
          <mxGeometry width="50" height="50" relative="1" as="geometry">
            <mxPoint x="1140" y="280" as="sourcePoint" />
            <mxPoint x="1190" y="230" as="targetPoint" />
          </mxGeometry>
        </mxCell>
        <mxCell id="-8jvjZ6w2DFLw9TIHbP5-4" value="Ports Group A-8081, 8082, 8083, 8084, 8085,15672, 25672, 5672, 4369" style="rounded=0;whiteSpace=wrap;html=1;labelBackgroundColor=none;fillStyle=dots;fillColor=none;dashed=1;align=left;verticalAlign=top;fontColor=#000000;strokeColor=#161cc0;" parent="1" vertex="1">
          <mxGeometry x="1251" y="389" width="202" height="90" as="geometry" />
        </mxCell>
        <mxCell id="xHGTEr-8fceokaSjBUOU-2" value="" style="image;sketch=0;aspect=fixed;html=1;points=[];align=center;fontSize=12;image=img/lib/mscae/DNS.svg;" parent="1" vertex="1">
          <mxGeometry x="340" y="80" width="79" height="79" as="geometry" />
        </mxCell>
        <mxCell id="xHGTEr-8fceokaSjBUOU-4" style="edgeStyle=orthogonalEdgeStyle;rounded=0;orthogonalLoop=1;jettySize=auto;html=1;startArrow=openThin;startFill=0;" parent="1" source="xHGTEr-8fceokaSjBUOU-3" target="xHGTEr-8fceokaSjBUOU-2" edge="1">
          <mxGeometry relative="1" as="geometry">
            <mxPoint x="294" y="244" as="sourcePoint" />
            <mxPoint x="350" y="244" as="targetPoint" />
            <Array as="points">
              <mxPoint x="270" y="242" />
              <mxPoint x="350" y="242" />
            </Array>
          </mxGeometry>
        </mxCell>
        <mxCell id="xHGTEr-8fceokaSjBUOU-29" value="Port 443" style="endArrow=classic;startArrow=classic;html=1;rounded=0;exitX=0.987;exitY=0.544;exitDx=0;exitDy=0;exitPerimeter=0;entryX=0.002;entryY=0.214;entryDx=0;entryDy=0;entryPerimeter=0;labelBackgroundColor=none;labelPosition=center;verticalLabelPosition=top;align=center;verticalAlign=bottom;" parent="1" source="xHGTEr-8fceokaSjBUOU-2" target="xHGTEr-8fceokaSjBUOU-20" edge="1">
          <mxGeometry width="50" height="50" relative="1" as="geometry">
            <mxPoint x="454" y="420" as="sourcePoint" />
            <mxPoint x="504" y="370" as="targetPoint" />
          </mxGeometry>
        </mxCell>
        <mxCell id="_dJijCis9dZ2Z3_0VdmX-1" value="" style="shape=image;verticalLabelPosition=bottom;labelBackgroundColor=default;verticalAlign=top;aspect=fixed;imageAspect=0;image=data:image/png,iVBORw0KGgoAAAANSUhEUgAAAVwAAAGqCAYAAABH3fwoAAAACXBIWXMAAAsSAAALEgHS3X78AAAgAElEQVR4nO3df2yU950n8Hd6dDO3wh732NvrxjB29tTaZ8/a5IRZ3B7GgLC3J4F9CiZ7Ek6GAroTgQRIokSCiuFiqkRNgJaUXQmSmBipLQbVBu0ldgQx5rJ2Ddpg7+DD1XVrD5j2TkXn8Vg5t9GK++N5xhnMzPh5nnme7/f5Ps/7JVlpsf3MxzPPvOf7fH89jz2+rLIUQAREpJzt3/68dF3Z70tl15GuIPAg0PDvfj8ruw4XOrgIQCmAQ5ILISIL/iz4z3j6KWabIlZ8RXYFRER+wcAlIhKEgUtEJAgDl4hIEAYuEZEgDFwiIkEYuEREgjBwiYgEYeASEQnCwCUiEoSBS0QkCAOXiEgQBi4RkSAMXCIiQRi4RESCMHCJiARh4BIRCcLAJSIShIFLRCQIA5eISBAGLhGRIAxcIiJBGLhERIIwcImIBGHgEhEJwsAlIhKEgUtEJAgDl4hIEAYuEZEgDFwiIkEYuEREgjBwiYgEYeASEQnCwCUiEoSBS0QkCAOXiEgQBi4RkSAMXCIiQRi4RESCMHCJiARh4BIRCcLAJSIShIFLRCQIA5eISBAGLhGRIAxcIiJBGLhERIIwcImIBGHgEhEJwsAlIhJkkewCiMi6ifuLcO1//ZHsMh4S/JcPUFX8hewy3GjmsceXVdYD+ER2JUTkDXXf+AN6X7gvuww3WssuBSIiQRi4RESCMHCJiARh4BIRCcLAJSIShIFLRCQIA5eISBAGLhGRIAxcIiJBGLhERIIwcImIBGHgEhEJwsAlIhKEgUtEJAgDl4hIEAYuEZEgDFwiIkEYuEREgjBwiYgEYeASEQnCwCUiEoSBS0QkCAOXiEgQBi4RkSAMXCIiQRi4RESCMHCJiARh4BIRCcLAJSIShIFLRCQIA5eISBAGLhGRIAxcIiJBGLhERIIwcImIBGHgEhEJwsAlIhKEgUtEJAgDl4hIEAYuEZEgDFwiIkEYuEREgjBwiYgEYeASEQnCwCUiEoSBS0QkCAOXiEgQBi4RkSAMXCIiQRbJLoDkqautAQBUV5QjWFgAAChdVoySpcUP/VywsABVFWUZj5FIzmDk1u1H/n149DamEtMAgJHRMUxNTyMxncRwhp8l8gsGrsfV1dagZGkxSpY+gTW1KwEAq1etsO34wYLFGY+X6zFSIT01PY3hW7cxMjqGibuTDGPyPAauh9TV1qC6ohzVleWoqijP2iqVLT2kNzase+h71wZvYHj0th7EtxnC5CkMXIXV1dagblUN1tSutLXVKtPqVSse+lsSyRn0Dwyhf+A6+gevM4BJaQxchRQVFmBj43psalyHutqVCBYsll2S44IFi7GxYd1cSziRnMGlnsu42HMF/QNDmJpOSq6QyDgGrsuVLC3GpsZ1aG1pdm0XgUjBgsXYurkJWzc3AQAu9V7BxZ4ruNRzmeFLrvfY48sq6wF8IrsQ+lJ6S3Z+Hydld6n3Cjo6u3Gx57LsUnyt7ht/QO8L92WX4UZr2cJ1kerKcuzZ3oqNjet90V1gt1TXQyI5g47OLpw43YGJu5OyyyKawxauC7S2NOPZlmbPDHy5yaXeKzjxbgf6B67LLsU32MLNii1cWYoKC9Da0ow9O1oRKn5CdjmelWr1joyO4cS7Hejo7JJdEvkYl/YKVlRYgIP7dmFs4GP84NCrDFtBqirKcOrtNvxyoBetLc2yyyGfYuAKkh60B/ftYh+tJKHiJxi8JA0DV4DWlmYM9Vxg0LpIKng/Ptc+t6cEkdMYuA6qq63B0EcXcOrtNnYduNTqVSvQ+7P3cfrokUc27SGyGwPXAUWFBTh99Ah6f/Y+FysoYuvmJgz1XMCe7a2ySyEPY+DabM/2VowNfDy3EorUESxYjB8cehVDH11AdWW57HLIgxi4NilZWoyPz7XjB4deZT+t4qoqyvCLD8/j4L5dskshj2Hg2iA1KMaFC95ycN8uDH10gX27ZBsGbh6KCgvQefpHOPV2G1u1HlVVUYahngucQka2YOBaVF1ZjqGeC9xcxgeCBYtx6u02nD56BEX6rYiIrGDgWrBneyt+8eF5TvXyma2bm9B7rp1dDGQZA9eE1HSvHxx6VXYpJEmqi4GLJcgKBq5BRYUF6D3XzulehGDBYvT+7H3265JpDFwDUv21XMRA6U693Ya3oq/JLoMUwsBdQHVlOXrPtbO/ljLa/d2tOH30iOwySBEM3BxaW5rRe66dU74op62bmxi6ZAgDN4vWlmbOryXDtm5uwtBHFzhtjHJi4GaQClsiM6oqytB7rp2hS1kxcOdh2FI+UqFLlAkDNw3DluxQVVHGPl3KiIGrq64sZ9iSbTiQRpkwcPHl1C8iO23d3MR5uvQQ3wduagUZZyOQE3Z/dytXpNEcXwcuw5ZEOPV2G+8gQQB8HrhvRV/jcl0SgruMEeDjwN2zvZUb0ZAwwYLF6Dz9I9llkGS+DNy62hpusUjCVVWUcRDN53wXuNptcU7ILoN8avd3t2JT43rZZZAkvgvcU0ePcJCMpDp19Aj7c33KV4G7Z3sr70FG0gULFnNRhE/5JnBLlhbj4P7nZZdBBABYvWoF9mxvlV0GCeabwD3NrgRymYP7n2fXgs/4InD3bG/F6lUrZJdB9BB2LfiP5wOXXQnkZqtXreCsBR/xfOC+FX2VXQnkam9FX+Wm5T7h6cCtq63hrARyvVDxE9jNATRf8HTgsn+MVHFw3y4OoPmAZwN3z/ZW3tqclPK9/btkl0AO82TgFhUWcKCMlLN1cxNbuR7nycDdvb2VA2WkpLei3FTJyzwXuEWFBdiz41nZZRBZsrFhHTcr97BFsguwG1u39hgZHUNiOomp6WkM37qd8WeKgoWortDCoaqynM+7TfZsb8WO/Qdkl0EO8FTgsnVrzbXBG7g6MISR0TEM37qNibuTlo9VV1uDkqXFWFNbg7raGg5cWrB1cxNeP3oyr9eB3MlTgcvWrTGJ5Awu9VzGxZ4r6B8YwtR00rZj9w9cB3AdHZ1dALSVfpsa16G1pZm3MzLhe/t3sZXrQY89vqyyHsAnsgvJV1FhAcYGPmbg5nBt8AY+6OyaC0PRSpYWo7WlCXt2PMvXyYCvh2tt/TAUpe4bf0DvC/dll+FGaz0zaLaxcT3fxFlcG7yBhme2YcOWiLSwBYCJu5NoO3YS/6ZyFXa+dBDxyXvSalEBV595j2cCl5PGHzUyOjYXtNqlvnt0dHbhm7UNeOXwm0gkZ2SX40rPbmmWXQLZzBOBu6lxPQdn0iSSM3jl8JtY+VdPuy5o5zvxbgfKajfg7Plu2aW4Tqj4Ce4k5jGeCNzWFt7uPGVkdAwrG5/GiXc7ZJdi2NR0Ejv2H0DDM9vY2p2H57a3KB+4JUuLuSOY7p33zmLlXz2t7HSi/oHrKKvdgGuDN2SX4hobG9Zx60YPUT5w2QLQ7HzpIF6OviG7jLxNTSexYUuEXQxpWlvYl+sVygeu3wcWEskZbNn5otTZB07Ysf8Adr50UHYZrsDA9Q6lA7e6stzXg2WJ5AwatkRwseey7FIc0dHZxdAFUFVRxl3EPELpwPX7baYbtkSy7nPgFQxdzaZGjlN4gdKBu9HHU2Z2vnTQ82Gb0tHZhbZjJ2WXIRW7FbxB2cCtq63x7cqyVw6/6bk+24W0HTvp64E0dit4g7KB69cJ4Zd6ryg1x9ZOL0ffwMjomOwypKmrrZFdAuVJ4cD1X59WfPIedvp4B6mp6SRadrzg28URfjznvUbJwPXr7IQd+w8ouXuUnSbuTqLt6I9llyFFXe1K2SVQnpQM3LpV/ru0eue9s67fF0GUE+92+HI1WrBgMbsVFKdk4Pqt/zY+ec+3rbps/Lo5tx8bG16iZOCuXrVCdglCvRx90/ddCfOl9tb1mzXsVlCacoHrt0uqa4M3PLuSLF/vvNvhuwE0vzU2vEa9wPXZJdXrx9iVkM3UdBInTn8guwzheBt1dSl3E0k/XVJdG7zBgbIFvPNuh6/OCUDbktQvqwy9RrnArfLRpztbtwtLbedIpAKluhSqK8t9s5w3PnmPrVsij1EqcKsqfNS6Peq/EXgir1MqcP0yWJBIzuASZyYQeY5ageuTFu6lnsucd0vkQUoFrl8GzC72XJFdAhE5QJnALSos8MWAWSI5w4UORB6lTOD6pXXbPzAkuwQicogygeuX/lt2JxB5lzKBGywskF2CEJx7S+RdygSuH6aExSfvYeLupOwyiMghygRuUWGh7BIcx/XxRN6mTOD6YdCMgUvkbcoErh+mhPUPsv+WyMuUCNwinwyYTdy5J7sEInKQEoHrh+4EABwwI/I4JQLXD/x4F1oiv1EicP0wQ4GIvE+JwK2qKJNdguOuckkvkecpEbhERF7AwHWJBPe/JfI8Bq5LDI9y0QOR1zFwiYgEUSJw19SulF0CEVHelAhcIiIvYOASEQnCwCUiEoSBS0QkCAOXiEgQBi4RkSBKBO7U9LTsEoiI8qZE4PLWM0TkBUoELhGRFzBwXaK6wh93tSDyMwauSwR9ct82Ij9j4BIRCaJE4I6MjskuwXHcoIfI+5QIXE4LIyIvUCJw/WD1qhWySyAihykRuBN37skuQYgiDpwReZoagXt3UnYJQlRVcmoYkZcpEbgAkEjOyC7BcXWramSXQEQOUiZwR3ywvLeaLVwiT1MmcP2AgUvkbcoE7tWBIdklOC5U/ARKlhbLLoOIHKJM4Camk7JLEKKulv24RF6lTOAOj3q/DxcA1jBwiTxLmcD1y1zcjY3rZZdARA5RJ3B9Mhc3WLCY3QpEHqVM4ALAtcEbsksQ4tmWZtklEJEDlApcv/TjsluByJvUClwfLH4AtG6FVrZyiTxHqcAd8UkLF2C3ApEXKRW4fmnhAtp2jVwEQeQti2QXYNa1wRu+2Tv2e/t3Ycf+A7LLcL2D+3bJLkGo/sHr6B+4LrsMskC5wL06MOSbwN26uQmvHz3pmylxVrS2NPsucBue2Sa7BLJIqS4FwB/3N0v3vf3+ChOz/Pj8sHWrLuUCt98Hm9ik27q5ibuIZdHa0oxQ8ROyyxDKbw0Or1EucKemk7476d469JrsElynqLAAb0X997z0D7J1qzLl+nAB4GLPZVRVlMkuQ5jVq1Zgz/ZWnHi3Q3YprnFw//MIFiyWXYZwbuxOqKutQVFh4dx7smTJPwPl/0/75hcJIPGPwOd3gM/jEqt0h8ceX1ZZD+AT2YWYUV1Zjl98eF52GUIlkjNY2fg0B9CgvcF7f/a+7DKkCITCsktAdWU5WluaUbeqxlzD54tp4P6nwG/+DvjNf9fC2F/WKhm4APC/bw36roVzbfAGNmyJyC5DqqLCAgz1XPBd3y0g9/UvKizA7u2teHaLjf3mv/0Q+NXfAL/71J7jud9a5fpwUy71XJZdgnCrV63w3RSo+U4dPeLLsAW0rjTRigoLcHDfLowNfIyD+3bZ+9x//TvAty9qX3/ybfuO62LKBu7FniuyS5Di4L5d2OTTzW32bG/FxoZ1ssuQRvQ5v6lx/VzQOno1+Sff1kL3L88CXw069zguoHDgXvbFrdMzOXX0iO+mim1qXI8fHHpVdhnSxCfvCeu/LyosQOfpH+HcqR+K7bb7+neADTeBP/uP4h5TMGUDF/BntwKg7SbWe67dN3stVFeW49TRI7LLkEpU67a6shxDPRfkXUl8tRBY2QH8xfflPL7DlA5cv3YrAFrodp7+EYoKC2SX4qjqynL0nmv33QDpfB2dXY4/Ruq5dkUf+Z//F+Df/1h2FbZTPHD9260AAFUVZeg91+7Z7gWGrSY+ec/xnfJc+Vwv+2vPha7SgQuI+eR3M6+GbmtLs/sCQBKnr+RcGbYpHgtdBq4HpPp0vXKXiIP7duHU223uDAAJTpx2boVhUWEBTr19xN3P9bK/BkL/WXYVtlA+cIdv3fbd3gqZBAsW49TbbUrvL1CytBgfn2v3/VzjdCOjY47OTngr+poay+TD3weCfyG7irwpH7gAuMdAmt3f3Yqhjy4o18WwZ3srhnou+GavY6OcPLc3Na7H1s1Njh3fVl8tBJ56R3YVeVN2ae98flzqu5B33juLtqM/xtR0UnYpWdXV1uB7+55n0GaQSM6grHaDY6/fLwd63TEjwYzPdgPxn8iuwip1l/bOd+L0B7JLcJ3d3906t1LIbdPHSpYW4/TRI+j92fsM2ywu9Vx2LGxtX6YrSvj7Sq9G80wLt2RpMcb+vkd2Ga6VSM6go7MLJ053SN1xbFPjeuzZ3sqQNaDsW42OvVZKXxHGDgC/+lvZVVjhnRbuxN1JnD3fLbsM1woWLNZavH/fg4/1GQ2iWr3VleV4K/oafjnQi3OnfsiwNeBS7xXHwra1pVndsAWAP/+vsiuwzDMtXICtXCtGRsfm7gLbPzBkyyVsdWU5qirKsaa2BnW1NWpeukrW8Mw2xzYbH/roghozE3IZatX21FWLuvvhZnP66BF1Rl5dKJGcwcit25i4O4nxO1oLK9ttXUqWFqNkqRam1ZXlKCosZOvVBk7ue+uZRsmdnwL/8LzsKsxaq+QtdnJ5/ehJBm4eggWLsXrVCqwGg1OW1485t7KqrrbGsWMLtUTN/XM904ebwr5cUtm1wRuO3rdsU6NH9hP+42VKLoTwXOACWiuXSEVOtm4BKLcgJqeg/Pu7meXJwJ24O4m2YwxdUovTrVsA3hrA/OOQ7ApM82TgAsA773b4eutGUo/TrVvP9N+mKNiP69nAnZpOou2od7Z1I287e77b8dYtyefZwAW0jT+4kxi5XSI5w3EHn/B04ALAy4ffkF0CUU4nTn8gdbk1ieP5wO0fuI533jsruwyijOKT9zjA6yOeD1wAaDv6Y8Qn78kug+gRO/YfkF0CCeSLwJ2aTvLEJtd5572zHCjzGV8ELsCuBXKX+OQ94bNoPBfu9z+VXYFpvglcQOta4KwFcoOWHS9IuROHp7rWPo/LrsA0XwXu1HQSO19i1wLJ1XbsJIZv3Zby2LIe1xGJmOwKTPNV4ALaCbfzpYOyyyCfujZ4Q+qsBM90K3wxDST+UXYVpvkucAGgo7OLO4qRcInkDFp27JFaw8WeK1If3za/VW7zcQA+DVwAeDn6BvtzSaiGLRHpd1CeuDvpjfP+N38nuwJLfBu4U9NJtOx4gRvckBA7Xzromv7TE+92yC4hP5/fUfH2OgB8HLiA9mnf4NCtTIhSzp7vRkdnl+wy5lzquax2Q+POT2RXYJmvAxfgIBo561LvFdctupmaTuLE6Q9kl2HNF9Oq3iIdAAMXgDaIxtAlu42MjmGny8I2Rdn9ov/pb4EvErKrsIyBq+vo7OJKNLLNyOiYKwbJspmaTrr2wyCrRAy4/absKvLyLxYF/7QUQERyHa7Q2/c/ULqsGFUVHrrvEwnn9rBNGfvVr1FdWY6yf/uk7FKMGdwC/P7/yK4iH2fYwp1nx/4DnKNLliWSM9j50gHXh23Kzv0H1FjuGzug5EKH+Ri4GTB0yYr45D00bIm4ZvqXEUpMj7zzU6UHytIxcLNg6JIZI6NjWNn4tFJhmzJ867b0FXBZ/e5T4B+el12FbRi4OezYf4CzF2hBqvTZ5tI/cB1bdr7orpbubz8EhlplV2ErBu4COGWMcrk2eEP5sE252HMZDVsi7gjdOz8FfrFV6SlgmTBwDejo7MJffmezO05Eco2z57uxwSNhmzJ86zbKajfg2uANOQV8MQ18tttT3QjpGLgGDd+6jZWNT3tj4w/K2yuH33TdCjK7TE0nsWFLBG3HToptZPzuU+DTTUBc3aW7C+E8XBMS00l0XvwQX//Tf825uj6VSM7g2d2vuGpvBKf0D15H58UP8bVgobPn++d3tGlfsQOqz7NdyBkGrkmzv/8DLvZcQWI6iYb6/yC7HBJIGxzbhqHPhmWXIkxiOomLPVfQ0dmNrwULUbJsKQKP/5FNB48B//O/aV0ICt69wYIzjz2+rLIewCeyK1FRdWU5Ok//CKHiJ2SXQg47e74bL0ff8FR/rVWtLc1YU1uDjY3rESxYbO6XEzFt8/D4T5S8J1me1jJw81RUWIC3oq9h6+Ym2aWQAxLJGezcfwAXey7LLsWVSpYWo2TZE6hbVTP3b5vWrUDVv/qnLwP187j29Tv17rJrMwauXTY1rsepo0fMf+KTa10bvIEd+w9g4u6k7FKUUveNP6D3hfuyy3CjtZylYJOLPZdRVruBq9M8IJGcwSuH38SGLRGGLdmKgWujqekkduw/gIZntqmxIQg94lLvFaxsfFr929CQKzFwHdA/cB3frG0QP4+RLItP3kPDM9vQsuMFtmrJMQxcB7UdO8luBpdLJGfQduwkvlnbgP6B67LLIY9j4Dos1c1Q9q1GecslKaN33juLstoNaDt2UnYp5BMMXEEm7k5iw5YIGp7ZxuCV7Oz5bpR9q5Hzakm4RbIL8Jv+gevYMBBBXW0Nnm1p5vxdQRLJGVzquYzXj55kHy1JwxauJP0D1+e6Gs6e7+bgmkNSfbRltRs4p5akYwtXsom7k9ix/wCKCt9Aa0sz9uxo5VJhG1wbvIEPOrt8sckMqYMrzVyourIce7a3Wlur7mPxyXu42HMFJ053sCUrEVeaZcWlvW63qXE9WluasLFhnexSXCnVN3ux5wr3O3AJBm5Wa9ml4HIXey7PBcmmxvXY1LjO9y3fVEu2f+A6Q5aUwsBVyJfhewDVleWoW1WDTY3rsXrVCtmlOSqRnEH/wJAesFfYXUDKYuAqavjWbQzfuj235r+utgbVFeXafyvLlR54Gxkdw8jobVwduI6R0dtK3nqcKBP24XpUUWEBqirLUV1RjurKcpQsLUZVZbmruiLik/cwcecehvVQnbg7yeW1HsA+3KzYh+tVU9NJ9A9czxhgdbXaZtGpTaNLlxWjZGkxACBYWICqirK8Hz99Nd3w6G1MJaaRmE5iePS29l+2WsmHGLg+lAphM63J1M7+6RicROYwcMmQibuTHKwiyhOX9hIRCcLAJSIShIFLRCQIA5eISBAGLhGRIAxcIiJBGLhERIIwcImIBGHgEhEJwsAlIhKEgUtEJAgDl4hIEAYuEZEgDFwiIkEYuEREgjBwiYgEYeASEQnCwCUiEoSBS0QkCAOXiEgQBi4RkSAMXCIiQRi4RESCMHCJiARh4BIRCcLAJSIShIFLRCQIA5eISBAGLhGRIAxcIiJBGLhERIIwcImIBGHgEhEJwsAlIhKEgUtEJAgDl4hIEAYuEZEgDFwiIkEee/DggewaiIh8gS1cIiJBGLhERIIwcImIBGHgEhEJwsAlIhKEgUtEJAgDl4hIEAYuEZEgDFwiIkEYuEREgjBwiYgEYeASEQnCwCUiEoSBS0QkCAOXiEgQBi4RkSAMXCIiQRi4RESCMHCJiARh4BIRCcLAJSIShIFLRCQIA5eISBAGLhGRIAxcIiJBGLhERIIwcImIBGHgEhEJwsAlIhKEgUtEJAgDl4hIEAYuEZEgDFwiIkEYuOSYQChcFAiF9wZC4XHZtRC5wSLZBZD3BELhUgBRAM0AglKLIdIFQuGi2XhsSmYNDFyyTSAUbgawF8Aa2bUQAVrIQjsnI/pXn8RyGLiUn3kndIncaog0gVB4ObTz8jnZtaSzHLj6G205gHoApfrXfDcBTEH7VLlptDkfCIUjWY6X1Ww8FjXz8/rjNEP7Gxx7nEAoXA/tOUo9X/NNQXuexqE9RzfNHH+BxzRifDYea7f4OO3I84S28lrbpH02HhufV0u9xWOVwvrfYPn5t0Lv7qmHVm99pnr0r5sA+uy6BNcfN5Ll2zdn47Eumx6nHlp3lqGrLMHnX7upwNVDthnaE2fkD0r9zCH997sBdBk4wUpTv2OiNisvWjvM9TF2G6wlAu15ajJ43LmfC4TCE9A+oI7nEb71MPH8BULh8dl4rM/C49jReohAfBfExPwPTv2N+ongOgDgsNMPoIfdXmjn5EJXIQ+9FoFQeBjAcWjv23zCtxTZz8lEIBRePv8D0KJ6mDufIiZ/3qqJ2XgsamiWgj7aHIX2yfc+rBfYBOD9QCg8pR8vm+MAEiaPvdfMD+uhaHZAJ+djBELhaCAUnoL2HBkN2/lKoAXZZ4FQuC+PVpcZ7fqHqV9EDf6b0x4JfjsFQuFS/Srk1wBehLUun2po5/O4fn47cZ4EoTV+vCwKGJgWpr/hb0L7dLJrxDkI4FAgFL6p97U8RP8kPW7ymGtMhlPU5PHPZPsEDoTCy/WpT3Y+R4D2wfZJIBQ+7nAglkBO4MgwMf8KSz9vZAz0RZ06sN6g+TXs68MMQju/b+pdcXZbEwiFTTWaFHI1dc7lDFz9CfgEzg2GVENryUUyfM9KKzfTcR6hnzBm/6ZolmPtBfCZheOZ8SKAPv3S0LHHyPTh50GZ3tTtootAhuC3g96qTTWQnFAC4OeBUNhsg8iIqMPnuCzR1P/IGrj6pcgxAcUAWjdDJP0f9FZu1ORxnjP4gpn9JM3YuhX8HFVDa104GYrtDh7bDa7O7+fXzzsZsytsb83p58ZNaOeK014MhMJ2d0V5sWvhavr4SMZBM/3TS/R0ivcDoTDSP/Vn47HjegvSzBsiihwtXYuXj9EMx5HxHAWh9bfWOzSBuzoQCked7FeULGrw35z2SPDnSw/bPhjr0uqGPgsBwNRsPHYzbdZREbSBJyNXgc/pP29nF8OaQCi8dzYec6IFbcpsPPaY3cd8pIWrX26/aPcDGfR+hhZc1OQxmhf41M27dSv5OaqGs62AQx7tWrg6fyaGhQ9zu0TtPJh+vndh4bD9IYAnZ+Ox5tl4LDobj/WlZsLMxmNT+v/vmo3H9s7GY6UA1gK4usAxm/QrPTt5tWvh4cDVX7h2OaXMeeiTX2/xTpj4/SCyhKr+IpqdPRDNcIx2k8ewW5PDsxfaHTy2LA+dE/q5HpVQxyPBb4Mu5P7gGAbwlB6k40YPqgdwPYB9C/zoczYPpGj+k68AAAoHSURBVHmxawHAo10KxyF/7XtJhsvaKLSpKUbthT2Xj4cznKBRyH+OAK2OeoeO7dauhauwtjRzPMOc5lKYmwljZhDqDLQplJnY3ZUQQe4usm4AkXy6oPSuvT7k7rJoD4TCpTZ2dbmma8FOjz148ADAXMvt1xaPk4C+mkz//6l+IKud9wkAD714+rQrM5d/29L7g/UWzf/Ns4Z65Dc5fhhfripL9Zkth/UAfyrT4gh9SpAdo9QZj5/2OA+MHihbf5j+Rjbap35Y1oeAmb8VwFoHWrGP0M/pcWQ/f4YB2Nbfb+D8z/r6WHzvJACYWhCxwLn/yOuS6/xzog83vYUbtfD7CQDRbJ9Ceogfh/nL+CC0jvj2tH+LwlwrNzrv98323R7PcKJGTB4j5TAyLCVN0VspVq4uInBgtDvNcTjXiqb8RZD9nEkAaLZzcHU2HusLhMKHkT3Q9gZC4Uzvm4UMI3PjLNW1UG/yeK6V3odrtg8mAe3TM2uTfzYeG5+Nx5qxcB9QJg8FiYW+3JJUv1LaBitGJTDvclM/htlZCQlorcRork9p/W8rhXbimeHEBPR0Xp6M7gW5Xpuc55xVegs22/swCGuNki5kXzbvqXPwK8DcqLuZ1lUqbA2t9ddD+Ycma6vOMNvA7BOf+nmzf1+mT2mrH0hGn6MpaCfrVRNf4yZrssKzI8Yq02eSZOtim3C47zOa43sRi8eMIPtCJ8+cg6kuhXqTv2d6Y5XZeGyvhRVe9UgbZJiNx7oCofBVGO/zSy33jZp4zEdatzqzgRu18BzdhPsunzx3WecRkRzfs3Vgbr7ZeKxdn4eeqRFTrQ+ejZs85pTetfbzDN/2zDmYClwz8y6zBdKC9Ll9+YrCXOd7O8yFfLY+KFPPkcdGV90yYlxqdjqciMErSXKdj+0CHr8L2bvY6q3UoDeoupF5zGdNIBRutnvBiGipwDWz8irfbdryonfcm2nlmgnbXB8mZo7TbuJnVRENhMJdTvQLmvAczPej2z7S7BLZzv+EHXsqG9CH7K9FaR7HjSD7zAu7p54Jt8jCWug+JwoxKQpn9i6NZnoxLSwy6Mv2jQW2pbSiT1ArzjOXdapboD9TRNgCuccP6q0e1GDXgtODxQDmpoxZdXM2HntkzGkRTN7xAGIGanKy0Mo1ws6BhlwnvRO7OPU5cMxMPHFZ5wGlOb43LqIA/T3o1LFzdS00CTwHbd+y08pt0sftLsKiqFuPJ/my26zUjAej/LZZuWrGZRdgkwiyz1pQ9hw0HbhuCRP9MtpMUOTiyN6kConA+N7Dnl3nTu6RNk0yE2XPQdOBK+iWL0ZFXXYcJekfolETv9Lk0K7/RHP0boNsCyKUPAcXQbtrrJL0fqQzyG9fWttbtwHthniiBi9soW9Q0gzj/VbtDpZD1tWLeBCBl/QRyJu1kM8VdMb3/yJ982EzB6qHO2YqpESRX+BGDfzMuMljlkLcaLGdItDqNrIqzw07pvnSAgNWooIw12C7nfs3TOlLezPto+LorAV9a0pbpebhJmD8DdQMF12Cz8Zj43m0cg21bvXHMHPcZji82scJ+t8ZhbjbBpl1Bl5rWXcvWQ6tEZMKyj403e8z8JvZ3rPVgVC4SMBc1foc37O1saGvbIsg89WXyFkLeUsF7k0Yv5S0tHQPmNsVq9TErxidYxqFtcCNmPjZbDsaZdKc46Q/bPAYy2H9VuuWWehaEGncMyvHupc0Q1tkM39BzSF0L9EW4DTdj+Y4Qh+ynx/1cP4Dvz7H9/oceLwIsl99KbMgIhW4XTD3BjsOk814fbK2me0VAYMvnMVWrtmd9/tgPHBTd52Izv+G0f1c85x0na8IjHctkFndS9qR+1zVbkmuhXI9mu5nCpI+ZA/cCBwMXP29nDUvnPhQXODqS+iCiHykZin0mfy9JjNbpqXdc8mMhMkXLmry+GYXOfSZ/HnL9wbTTyxpLUwLsxbIqO4lx2G8YVCN7OddrvdTk8O7a0VyfC/brIK86QuTsg1kKTFr4SvA3C5VZvaaBYBjRkJXf+H7YP7uD6YC2kIXh6nLD72PyOxz1Gf2JNCfUzOr0Ry5jFrg5CYrupfUw/zNR6vRvSQ6/x/18z1XuDmy0ZD+fs51frY78bhpIsixIALiBg0tSZ+Ha+UFOhYIhfsCoXBk/jSRQCi8XN/C7Sas3Wqn3cLvOK3d5M8HAfw8EAq3L9TaDYTC9Xo3gpkBq4SFmsyIwPiCCFqY1Y20s/1ervesUy2+9hzfm3B68GqBq68g5N1N25D0W+y0w9oNEtfoX+/buLbaiTub2uE4tJPf7HP0HLQ7m05A+wBKH8UthTYAYeV23Rk327GLArMWVGN1EDSI7iX182cvGNhTpD0QChveBH8h+u3Qc3V1Cbkzg8sHdnOaC9wF5ruJFpVdQCb6cxSF9QAq0b/smH0wLGJ/Wped3BGLKx3bpS/d7l5SmucR6pG5PzeC7AOcQWjdWnmHrh62ufqerwqemhWBggO7Dy3t1U9K2f123S5t3QKY69s0e+8xuyVg/VYmVkTgjq6FEnx5RWXmq1RCrfOVOnFQAwOcQQCfWd0WNBAKl+pdXbnCVvT5qOzAbqa9FCKQ9+YahuAXzqJmyA2gvSKXDqt6crtMvq/XeLZv6I2AMwv8/qFAKDweCIX3GlmWq4/BtAP4NRa+ummWsamVigO7i+b/g95vVw/t8kVkcz0BIKLC5GWJzxEAbJNxeeyyrgX1NN2fQveSCVjrqwcWCOzZeCyij6HkaomWQOsOOxYIhYehnb/z32/L9S+jdW6TfEUagUNdCzZt1DWe/mH0SOAC2jQxwYFi6g63biDhOQIkhW2aCBTsN3ORdljbgH4CTfcXfG8YDN2UalibPZRO9vno9MCuHXeVOYy0q8Os2zOm3UHW6f7KYQClKoVtil7zcjj/HCUArHXDyQ12LeTjOKx1RRke/Z+NxyIA9ll4DDMmADwl+3xMUalrIed+uLPx2M3ZeGw5jK//NyMB4PBsPLZchW6EbGbjsfG058iJft0fQvtA6nPg2KapdHK7jrZEN2Lyt86g6b7ZRUDHATwFZ16nwwDcuP1oRHYBRhjagFxf//8ktI75fEMloR9nudF9BVSg/y2lsC94zwB4cjYe2+vCDyQh8y09SQvP/wRj58hhNN2PWHkYvbFUD2At8g/e1Hv2ydl4zNG531bpV19ONAxtZfiOD3pLLgItVLZBW1ZoNFgS+s9vg9Zai7jlVj12mo3HpvQTsgjam+oMjC8HTj1H+wB8zc3Pkd66cf3J7Vpa6JZCew7nnx+pcHtqgd3CDJmNx/r04H1Sfzyj4avce1Zv9MiespnTYw8ePMjrAPoUk9Sy1eXQ1jJP4ctR1Ztu/EQULW3EsxRfzsns0/877vaT2e9MjlibP+e1fRbG0XR/3NTvWaQvNS8Cz0eh/j8iEwayI5Zo9gAAAABJRU5ErkJggg==;" vertex="1" parent="1">
          <mxGeometry x="1390" y="175" width="98.85" height="121" as="geometry" />
        </mxCell>
        <mxCell id="_dJijCis9dZ2Z3_0VdmX-2" value="" style="endArrow=classic;startArrow=classic;html=1;rounded=0;entryX=0;entryY=0.5;entryDx=0;entryDy=0;exitX=0.991;exitY=0.43;exitDx=0;exitDy=0;exitPerimeter=0;" edge="1" parent="1" source="_dJijCis9dZ2Z3_0VdmX-1" target="Fcgo-apEPi93iQy3yleW-2">
          <mxGeometry width="50" height="50" relative="1" as="geometry">
            <mxPoint x="1451" y="237" as="sourcePoint" />
            <mxPoint x="1558" y="238" as="targetPoint" />
          </mxGeometry>
        </mxCell>
      </root>
    </mxGraphModel>
  </diagram>
</mxfile>
